<mxfile host="app.diagrams.net" agent="Mozilla/5.0 (Windows NT 10.0; Win64; x64) AppleWebKit/537.36 (KHTML, like Gecko) Chrome/133.0.0.0 Safari/537.36" version="26.0.16">
  <diagram name="Page-1" id="nOYtWUL4CFx0bX7MQSOc">
    <mxGraphModel dx="840" dy="452" grid="1" gridSize="10" guides="1" tooltips="1" connect="1" arrows="1" fold="1" page="1" pageScale="1" pageWidth="827" pageHeight="1169" math="0" shadow="0">
      <root>
        <mxCell id="0" />
        <mxCell id="1" parent="0" />
        <mxCell id="UEmmUjJxJ4fcGJmuJ4Ul-26" style="edgeStyle=orthogonalEdgeStyle;rounded=0;orthogonalLoop=1;jettySize=auto;html=1;" edge="1" parent="1" source="UEmmUjJxJ4fcGJmuJ4Ul-14">
          <mxGeometry relative="1" as="geometry">
            <mxPoint x="330" y="560" as="targetPoint" />
          </mxGeometry>
        </mxCell>
        <mxCell id="UEmmUjJxJ4fcGJmuJ4Ul-14" value="Customer" style="rounded=0;whiteSpace=wrap;html=1;" vertex="1" parent="1">
          <mxGeometry x="70" y="440" width="90" height="50" as="geometry" />
        </mxCell>
        <mxCell id="UEmmUjJxJ4fcGJmuJ4Ul-15" value="Admin" style="rounded=0;whiteSpace=wrap;html=1;" vertex="1" parent="1">
          <mxGeometry x="650" y="450" width="80" height="40" as="geometry" />
        </mxCell>
        <mxCell id="UEmmUjJxJ4fcGJmuJ4Ul-20" style="edgeStyle=orthogonalEdgeStyle;rounded=0;orthogonalLoop=1;jettySize=auto;html=1;entryX=0.5;entryY=0;entryDx=0;entryDy=0;" edge="1" parent="1" source="UEmmUjJxJ4fcGJmuJ4Ul-16" target="UEmmUjJxJ4fcGJmuJ4Ul-15">
          <mxGeometry relative="1" as="geometry" />
        </mxCell>
        <mxCell id="UEmmUjJxJ4fcGJmuJ4Ul-16" value="User Management Process" style="ellipse;whiteSpace=wrap;html=1;aspect=fixed;" vertex="1" parent="1">
          <mxGeometry x="334" y="350" width="80" height="80" as="geometry" />
        </mxCell>
        <mxCell id="UEmmUjJxJ4fcGJmuJ4Ul-17" value="Order Management Process" style="ellipse;whiteSpace=wrap;html=1;aspect=fixed;" vertex="1" parent="1">
          <mxGeometry x="290" y="560" width="80" height="80" as="geometry" />
        </mxCell>
        <mxCell id="UEmmUjJxJ4fcGJmuJ4Ul-21" style="edgeStyle=orthogonalEdgeStyle;rounded=0;orthogonalLoop=1;jettySize=auto;html=1;entryX=0.7;entryY=0.875;entryDx=0;entryDy=0;entryPerimeter=0;" edge="1" parent="1" source="UEmmUjJxJ4fcGJmuJ4Ul-15" target="UEmmUjJxJ4fcGJmuJ4Ul-16">
          <mxGeometry relative="1" as="geometry" />
        </mxCell>
        <mxCell id="UEmmUjJxJ4fcGJmuJ4Ul-22" style="edgeStyle=orthogonalEdgeStyle;rounded=0;orthogonalLoop=1;jettySize=auto;html=1;entryX=0.5;entryY=1;entryDx=0;entryDy=0;" edge="1" parent="1" source="UEmmUjJxJ4fcGJmuJ4Ul-14" target="UEmmUjJxJ4fcGJmuJ4Ul-16">
          <mxGeometry relative="1" as="geometry">
            <Array as="points">
              <mxPoint x="330" y="465" />
              <mxPoint x="330" y="430" />
            </Array>
          </mxGeometry>
        </mxCell>
        <mxCell id="UEmmUjJxJ4fcGJmuJ4Ul-25" style="edgeStyle=orthogonalEdgeStyle;rounded=0;orthogonalLoop=1;jettySize=auto;html=1;entryX=0.631;entryY=0.032;entryDx=0;entryDy=0;entryPerimeter=0;" edge="1" parent="1" source="UEmmUjJxJ4fcGJmuJ4Ul-16" target="UEmmUjJxJ4fcGJmuJ4Ul-14">
          <mxGeometry relative="1" as="geometry" />
        </mxCell>
        <mxCell id="UEmmUjJxJ4fcGJmuJ4Ul-27" style="edgeStyle=orthogonalEdgeStyle;rounded=0;orthogonalLoop=1;jettySize=auto;html=1;entryX=0.583;entryY=1.029;entryDx=0;entryDy=0;entryPerimeter=0;" edge="1" parent="1" source="UEmmUjJxJ4fcGJmuJ4Ul-17" target="UEmmUjJxJ4fcGJmuJ4Ul-14">
          <mxGeometry relative="1" as="geometry" />
        </mxCell>
        <mxCell id="UEmmUjJxJ4fcGJmuJ4Ul-28" value="Login&amp;nbsp;" style="text;html=1;align=center;verticalAlign=middle;whiteSpace=wrap;rounded=0;" vertex="1" parent="1">
          <mxGeometry x="500" y="360" width="60" height="30" as="geometry" />
        </mxCell>
        <mxCell id="UEmmUjJxJ4fcGJmuJ4Ul-29" value="Login&amp;nbsp;" style="text;html=1;align=center;verticalAlign=middle;whiteSpace=wrap;rounded=0;" vertex="1" parent="1">
          <mxGeometry x="210" y="430" width="60" height="30" as="geometry" />
        </mxCell>
        <mxCell id="UEmmUjJxJ4fcGJmuJ4Ul-30" value="Login Message" style="text;html=1;align=center;verticalAlign=middle;whiteSpace=wrap;rounded=0;" vertex="1" parent="1">
          <mxGeometry x="200" y="360" width="60" height="30" as="geometry" />
        </mxCell>
        <mxCell id="UEmmUjJxJ4fcGJmuJ4Ul-31" value="Login Message" style="text;html=1;align=center;verticalAlign=middle;whiteSpace=wrap;rounded=0;" vertex="1" parent="1">
          <mxGeometry x="490" y="440" width="60" height="30" as="geometry" />
        </mxCell>
        <mxCell id="UEmmUjJxJ4fcGJmuJ4Ul-32" value="Order Place&lt;div&gt;&lt;br&gt;&lt;/div&gt;" style="text;html=1;align=center;verticalAlign=middle;whiteSpace=wrap;rounded=0;" vertex="1" parent="1">
          <mxGeometry x="270" y="500" width="60" height="30" as="geometry" />
        </mxCell>
        <mxCell id="UEmmUjJxJ4fcGJmuJ4Ul-33" value="&lt;div&gt;order placed message&amp;nbsp;&lt;/div&gt;" style="text;html=1;align=center;verticalAlign=middle;whiteSpace=wrap;rounded=0;" vertex="1" parent="1">
          <mxGeometry x="190" y="560" width="60" height="30" as="geometry" />
        </mxCell>
        <mxCell id="UEmmUjJxJ4fcGJmuJ4Ul-54" style="edgeStyle=orthogonalEdgeStyle;rounded=0;orthogonalLoop=1;jettySize=auto;html=1;entryX=0.25;entryY=1;entryDx=0;entryDy=0;" edge="1" parent="1" source="UEmmUjJxJ4fcGJmuJ4Ul-41" target="UEmmUjJxJ4fcGJmuJ4Ul-14">
          <mxGeometry relative="1" as="geometry" />
        </mxCell>
        <mxCell id="UEmmUjJxJ4fcGJmuJ4Ul-57" style="edgeStyle=orthogonalEdgeStyle;rounded=0;orthogonalLoop=1;jettySize=auto;html=1;" edge="1" parent="1" source="UEmmUjJxJ4fcGJmuJ4Ul-41" target="UEmmUjJxJ4fcGJmuJ4Ul-58">
          <mxGeometry relative="1" as="geometry">
            <mxPoint x="520" y="760" as="targetPoint" />
          </mxGeometry>
        </mxCell>
        <mxCell id="UEmmUjJxJ4fcGJmuJ4Ul-41" value="Payment Management Process&lt;div&gt;&lt;br&gt;&lt;/div&gt;" style="ellipse;whiteSpace=wrap;html=1;aspect=fixed;" vertex="1" parent="1">
          <mxGeometry x="374" y="720" width="80" height="80" as="geometry" />
        </mxCell>
        <mxCell id="UEmmUjJxJ4fcGJmuJ4Ul-44" style="edgeStyle=orthogonalEdgeStyle;rounded=0;orthogonalLoop=1;jettySize=auto;html=1;entryX=1;entryY=0.5;entryDx=0;entryDy=0;" edge="1" parent="1" source="UEmmUjJxJ4fcGJmuJ4Ul-43" target="UEmmUjJxJ4fcGJmuJ4Ul-17">
          <mxGeometry relative="1" as="geometry" />
        </mxCell>
        <mxCell id="UEmmUjJxJ4fcGJmuJ4Ul-43" value="" style="html=1;dashed=0;whiteSpace=wrap;shape=mxgraph.dfd.dataStoreID;align=left;spacingLeft=3;points=[[0,0],[0.5,0],[1,0],[0,0.5],[1,0.5],[0,1],[0.5,1],[1,1]];" vertex="1" parent="1">
          <mxGeometry x="340" y="490" width="100" height="30" as="geometry" />
        </mxCell>
        <mxCell id="UEmmUjJxJ4fcGJmuJ4Ul-47" value="User Data" style="text;html=1;align=center;verticalAlign=middle;whiteSpace=wrap;rounded=0;" vertex="1" parent="1">
          <mxGeometry x="370" y="490" width="60" height="30" as="geometry" />
        </mxCell>
        <mxCell id="UEmmUjJxJ4fcGJmuJ4Ul-48" style="edgeStyle=orthogonalEdgeStyle;rounded=0;orthogonalLoop=1;jettySize=auto;html=1;entryX=0.09;entryY=-0.033;entryDx=0;entryDy=0;entryPerimeter=0;" edge="1" parent="1" source="UEmmUjJxJ4fcGJmuJ4Ul-16" target="UEmmUjJxJ4fcGJmuJ4Ul-47">
          <mxGeometry relative="1" as="geometry" />
        </mxCell>
        <mxCell id="UEmmUjJxJ4fcGJmuJ4Ul-49" value="O_Id" style="html=1;dashed=0;whiteSpace=wrap;shape=mxgraph.dfd.dataStoreID;align=left;spacingLeft=3;points=[[0,0],[0.5,0],[1,0],[0,0.5],[1,0.5],[0,1],[0.5,1],[1,1]];" vertex="1" parent="1">
          <mxGeometry x="364" y="650" width="100" height="30" as="geometry" />
        </mxCell>
        <mxCell id="UEmmUjJxJ4fcGJmuJ4Ul-53" style="edgeStyle=orthogonalEdgeStyle;rounded=0;orthogonalLoop=1;jettySize=auto;html=1;entryX=0.5;entryY=0;entryDx=0;entryDy=0;" edge="1" parent="1" source="UEmmUjJxJ4fcGJmuJ4Ul-50" target="UEmmUjJxJ4fcGJmuJ4Ul-41">
          <mxGeometry relative="1" as="geometry" />
        </mxCell>
        <mxCell id="UEmmUjJxJ4fcGJmuJ4Ul-50" value="Product Data" style="text;html=1;align=center;verticalAlign=middle;whiteSpace=wrap;rounded=0;" vertex="1" parent="1">
          <mxGeometry x="414" y="650" width="60" height="30" as="geometry" />
        </mxCell>
        <mxCell id="UEmmUjJxJ4fcGJmuJ4Ul-52" style="edgeStyle=orthogonalEdgeStyle;rounded=0;orthogonalLoop=1;jettySize=auto;html=1;entryX=0.009;entryY=0.705;entryDx=0;entryDy=0;entryPerimeter=0;" edge="1" parent="1" source="UEmmUjJxJ4fcGJmuJ4Ul-17" target="UEmmUjJxJ4fcGJmuJ4Ul-49">
          <mxGeometry relative="1" as="geometry" />
        </mxCell>
        <mxCell id="UEmmUjJxJ4fcGJmuJ4Ul-58" value="Tr.Id" style="html=1;dashed=0;whiteSpace=wrap;shape=mxgraph.dfd.dataStoreID;align=left;spacingLeft=3;points=[[0,0],[0.5,0],[1,0],[0,0.5],[1,0.5],[0,1],[0.5,1],[1,1]];" vertex="1" parent="1">
          <mxGeometry x="470" y="745" width="100" height="30" as="geometry" />
        </mxCell>
        <mxCell id="UEmmUjJxJ4fcGJmuJ4Ul-59" value="Payment&amp;nbsp;" style="text;html=1;align=center;verticalAlign=middle;whiteSpace=wrap;rounded=0;" vertex="1" parent="1">
          <mxGeometry x="500" y="745" width="60" height="30" as="geometry" />
        </mxCell>
      </root>
    </mxGraphModel>
  </diagram>
</mxfile>
